<svg width="40" height="40" viewBox="0 0 40 40" fill="none" xmlns="http://www.w3.org/2000/svg">
<g clip-path="url(#clip0_38_39)">
<path d="M26 20C26 21.5913 25.3678 23.1175 24.2426 24.2427C23.1174 25.3679 21.5913 26 20 26C18.4087 26 16.8826 25.3679 15.7573 24.2427C14.6321 23.1175 14 21.5913 14 20C14 19.6581 14.036 19.324 14.098 19H12V26.994C12 27.55 12.45 28 13.006 28H26.996C27.2624 27.9995 27.5178 27.8933 27.706 27.7047C27.8943 27.5161 28 27.2605 28 26.994V19H25.902C25.964 19.324 26 19.6581 26 20ZM20 24C20.5254 23.9999 21.0457 23.8963 21.531 23.6951C22.0164 23.4939 22.4574 23.1991 22.8288 22.8275C23.2003 22.4559 23.4949 22.0147 23.6958 21.5292C23.8968 21.0438 24.0001 20.5235 24 19.998C23.9999 19.4726 23.8962 18.9524 23.695 18.467C23.4939 17.9816 23.199 17.5406 22.8274 17.1692C22.4558 16.7978 22.0147 16.5032 21.5292 16.3022C21.0437 16.1013 20.5234 15.9979 19.998 15.998C18.9369 15.9983 17.9193 16.4201 17.1691 17.1706C16.419 17.9211 15.9977 18.9389 15.998 20C15.9983 21.0612 16.42 22.0787 17.1706 22.8289C17.9211 23.579 18.9389 24.0003 20 24ZM24.8 15.8H27.198C27.3573 15.8 27.5101 15.7369 27.623 15.6244C27.7358 15.512 27.7995 15.3594 27.8 15.2V12.802C27.8 12.6424 27.7366 12.4893 27.6237 12.3764C27.5108 12.2635 27.3576 12.2 27.198 12.2H24.8C24.6403 12.2 24.4872 12.2635 24.3743 12.3764C24.2614 12.4893 24.198 12.6424 24.198 12.802V15.2C24.2 15.53 24.47 15.8 24.8 15.8ZM20 0.800049C14.9078 0.800049 10.0242 2.8229 6.42354 6.4236C2.82284 10.0243 0.799988 14.9079 0.799988 20C0.799988 25.0922 2.82284 29.9758 6.42354 33.5765C10.0242 37.1772 14.9078 39.2001 20 39.2001C22.5214 39.2001 25.0181 38.7034 27.3475 37.7385C29.677 36.7736 31.7936 35.3594 33.5764 33.5765C35.3593 31.7936 36.7736 29.677 37.7385 27.3476C38.7034 25.0181 39.2 22.5214 39.2 20C39.2 17.4787 38.7034 14.982 37.7385 12.6525C36.7736 10.3231 35.3593 8.20648 33.5764 6.4236C31.7936 4.64071 29.677 3.22645 27.3475 2.26156C25.0181 1.29667 22.5214 0.800049 20 0.800049ZM30 27.778C30 29 29 30 27.778 30H12.222C11 30 9.99999 29 9.99999 27.778V12.222C9.99999 11 11 10 12.222 10H27.778C29 10 30 11 30 12.222V27.778Z" fill="#DF1C7A"/>
</g>
<defs>
<clipPath id="clip0_38_39">
<rect width="40" height="40" fill="white"/>
</clipPath>
</defs>
</svg>
